<?xml version="1.0" encoding="UTF-8" standalone="no"?>
<!-- Created with Inkscape (http://www.inkscape.org/) -->

<svg
   xmlns:dc="http://purl.org/dc/elements/1.1/"
   xmlns:cc="http://creativecommons.org/ns#"
   xmlns:rdf="http://www.w3.org/1999/02/22-rdf-syntax-ns#"
   xmlns:svg="http://www.w3.org/2000/svg"
   xmlns="http://www.w3.org/2000/svg"
   xmlns:sodipodi="http://sodipodi.sourceforge.net/DTD/sodipodi-0.dtd"
   xmlns:inkscape="http://www.inkscape.org/namespaces/inkscape"
   id="svg2"
   xml:space="preserve"
   viewBox="0 0 512 512"
   version="1.1"
   inkscape:version="0.92.2 5c3e80d, 2017-08-06"
   sodipodi:docname="food-cherry.svg"
   width="512"
   height="512"><sodipodi:namedview
     pagecolor="#ffffff"
     bordercolor="#666666"
     borderopacity="1"
     objecttolerance="10"
     gridtolerance="10"
     guidetolerance="10"
     inkscape:pageopacity="0"
     inkscape:pageshadow="2"
     inkscape:window-width="1841"
     inkscape:window-height="1009"
     id="namedview108"
     showgrid="false"
     inkscape:zoom="0.7375"
     inkscape:cx="-7.5432306"
     inkscape:cy="-12.058602"
     inkscape:window-x="79"
     inkscape:window-y="29"
     inkscape:window-maximized="1"
     inkscape:current-layer="svg2" /><defs
     id="defs6"><radialGradient
       id="radialGradient50"
       gradientUnits="userSpaceOnUse"
       cy="13.127"
       cx="23.403999"
       gradientTransform="matrix(0.47432,-0.51416,0.4688,0.52088,-7.3237,16.429)"
       r="14.286"><stop
         id="stop52"
         style="stop-color:#ff0008"
         offset="0" /><stop
         id="stop54"
         style="stop-color:#800005"
         offset="1" /></radialGradient><clipPath
       id="clipPath62"><path
         id="path64"
         d="m 5,6 h 8 v 9 H 5 Z"
         inkscape:connector-curvature="0" /></clipPath><mask
       id="mask66"><g
         id="g68"><g
           id="g70"
           clip-path="url(#clipPath62)"><path
             id="path72"
             style="fill:#000000;fill-opacity:0.62110003"
             d="m 5,6 h 8 v 9 H 5 Z"
             inkscape:connector-curvature="0" /></g></g></mask><clipPath
       id="clipPath78"><path
         id="path80"
         d="m 5,6 h 8 v 9 H 5 Z"
         inkscape:connector-curvature="0" /></clipPath><clipPath
       id="clipPath82"><path
         id="path84"
         d="m 5,6 h 8 v 9 H 5 Z"
         inkscape:connector-curvature="0" /></clipPath><clipPath
       id="clipPath86"><path
         id="path88"
         d="m 11.914,13.336 c 0.633,-0.793 0.91,-1.715 0.84,-2.762 C 12.684,9.523 12.277,8.637 11.531,7.914 10.809,7.191 9.957,6.852 8.977,6.898 8.023,6.945 7.23,7.355 6.598,8.125 5.969,8.918 5.691,9.84 5.762,10.887 c 0.09,1.051 0.5,1.937 1.222,2.66 0.723,0.723 1.575,1.058 2.555,1.012 0.953,-0.047 1.746,-0.454 2.375,-1.223 z"
         inkscape:connector-curvature="0" /></clipPath><clipPath
       id="clipPath90"><path
         id="path92"
         d="m -1030.8,85.842 h 13.059 v 11.974 h -13.059 z"
         inkscape:connector-curvature="0" /></clipPath><radialGradient
       id="radialGradient94"
       gradientUnits="userSpaceOnUse"
       cy="91.500999"
       cx="-1024.6"
       r="3.1377001"><stop
         id="stop96"
         style="stop-color:#ffffff"
         offset="0" /><stop
         id="stop98"
         style="stop-color:#ffffff;stop-opacity:0"
         offset="1" /></radialGradient><mask
       id="mask100"><g
         id="g102"><g
           id="g104"
           clip-path="url(#clipPath90)"><path
             id="path106"
             style="fill:url(#radialGradient94)"
             d="m -1030.8,85.842 h 13.059 v 11.974 h -13.059 z"
             inkscape:connector-curvature="0" /></g></g></mask><radialGradient
       id="radialGradient108"
       gradientUnits="userSpaceOnUse"
       cy="91.500999"
       cx="-1024.6"
       r="3.1377001"><stop
         id="stop110"
         style="stop-color:#ffffff"
         offset="0" /><stop
         id="stop112"
         style="stop-color:#ffffff"
         offset="1" /></radialGradient><clipPath
       id="clipPath144"><path
         id="path146"
         d="m 10,8 h 4 v 5 h -4 z"
         inkscape:connector-curvature="0" /></clipPath><mask
       id="mask148"><g
         id="g150"><g
           id="g152"
           clip-path="url(#clipPath144)"><path
             id="path154"
             style="fill:#000000;fill-opacity:0.44920002"
             d="m 10,8 h 4 v 5 h -4 z"
             inkscape:connector-curvature="0" /></g></g></mask><clipPath
       id="clipPath160"><path
         id="path162"
         d="m 10,8 h 4 v 5 h -4 z"
         inkscape:connector-curvature="0" /></clipPath><clipPath
       id="clipPath164"><path
         id="path166"
         d="m 10,8 h 4 v 5 h -4 z"
         inkscape:connector-curvature="0" /></clipPath><clipPath
       id="clipPath168"><path
         id="path170"
         d="M 13.059,11.48 C 13.34,11.152 13.465,10.758 13.441,10.293 13.418,9.848 13.246,9.465 12.918,9.137 12.59,8.832 12.23,8.695 11.836,8.719 c -0.422,0.023 -0.77,0.207 -1.051,0.558 -0.281,0.348 -0.41,0.758 -0.387,1.223 0.024,0.445 0.2,0.816 0.528,1.121 0.301,0.301 0.664,0.441 1.082,0.418 0.422,-0.023 0.769,-0.207 1.051,-0.559 z"
         inkscape:connector-curvature="0" /></clipPath><clipPath
       id="clipPath172"><path
         id="path174"
         d="m -898.83,-5.7577 h 6.5059 v 6.542 h -6.5059 z"
         inkscape:connector-curvature="0" /></clipPath><radialGradient
       id="radialGradient176"
       gradientUnits="userSpaceOnUse"
       cy="-2.3501"
       cx="-895.98999"
       r="1.35"><stop
         id="stop178"
         style="stop-color:#ffffff"
         offset="0" /><stop
         id="stop180"
         style="stop-color:#ffffff;stop-opacity:0"
         offset="1" /></radialGradient><mask
       id="mask182"><g
         id="g184"><g
           id="g186"
           clip-path="url(#clipPath172)"><path
             id="path188"
             style="fill:url(#radialGradient176)"
             d="m -898.83,-5.7577 h 6.5059 v 6.542 h -6.5059 z"
             inkscape:connector-curvature="0" /></g></g></mask><radialGradient
       id="radialGradient190"
       gradientUnits="userSpaceOnUse"
       cy="-2.3501"
       cx="-895.98999"
       r="1.35"><stop
         id="stop192"
         style="stop-color:#ffffff"
         offset="0" /><stop
         id="stop194"
         style="stop-color:#ffffff"
         offset="1" /></radialGradient></defs><g
     id="g10"
     transform="matrix(17.268501,0,0,-17.268501,-20.075457,532.28607)"><g
       id="g12"><path
         id="path14"
         style="fill:#8ca101;fill-rule:evenodd"
         d="m 26.336,19.559 0.383,-1.086 0.14,-0.559 0.106,-1.121 v -0.488 l -0.106,-0.946 -0.246,-0.875 -0.523,-1.011 -0.488,-0.633 -0.071,-0.031 -0.035,-0.071 -0.281,-0.246 0.07,0.246 0.07,0.453 -0.035,0.247 -0.035,0.593 -0.14,0.594 -0.489,1.297 -0.176,0.312 -0.839,1.192 -1.118,1.152 -1.539,1.223 -1.293,1.398 -0.699,1.086 -0.527,1.156 -0.453,1.606 -0.141,1.574 0.035,0.805 0.211,1.191 0.383,1.188 0.281,-1.782 0.313,-0.945 0.562,-0.875 0.664,-0.769 4.653,-3.848 0.769,-0.981 z"
         inkscape:connector-curvature="0" /><path
         id="path16"
         style="fill:#616e01;fill-rule:evenodd"
         d="m 25.742,20.605 0.594,-1.046 0.383,-1.086 0.14,-0.559 0.106,-1.051 -0.07,-1.363 -0.211,-0.84 -0.348,-0.84 -0.629,-0.875 h -0.07 v -0.07 l -0.352,-0.383 0.77,1.258 0.351,0.84 0.172,0.875 0.035,0.422 -0.136,1.187 -0.247,0.664 -0.035,0.071 -0.07,0.105 -0.488,1.047 -0.629,0.84 -0.91,0.91 -2.973,2.414 -1.332,1.363 -0.836,1.399 -0.457,1.402 -0.176,0.977 0.071,0.875 0.14,0.351 0.07,-0.734 0.317,-1.332 0.664,-1.188 0.418,-0.523 0.527,-0.492 4.442,-3.637 z"
         inkscape:connector-curvature="0" /><path
         id="path18"
         style="fill:#6c7d02;fill-rule:evenodd"
         d="m 21.402,22.984 3.149,-2.621 0.804,-0.945 0.524,-0.84 0.387,-0.875 0.246,-0.945 0.101,-0.805 -0.347,1.504 -0.911,1.785 -0.91,1.051 -0.488,0.453 -2.937,2.344 -0.981,0.98 -1.016,1.469 -0.628,1.645 -0.207,0.976 0.242,0.211 0.492,-2.098 0.277,-0.699 0.735,-1.121 1.363,-1.433 z"
         inkscape:connector-curvature="0" /><path
         id="path20"
         style="fill:#687802;fill-rule:evenodd"
         d="m 18.957,27.461 0.207,-0.453 -0.207,-0.106 -0.316,-0.382 -0.282,-0.493 -0.101,-0.558 0.066,-0.457 v -0.207 l 0.106,-0.735 0.351,-1.332 -0.629,1.75 -0.246,1.328 -0.035,0.875 0.141,1.332 0.488,1.782 0.141,-1.364 z"
         inkscape:connector-curvature="0" /><path
         id="path22"
         style="fill:#6c7d02;fill-rule:evenodd"
         d="m 20.039,24.242 0.141,-0.066 0.035,-0.035 V 24 L 20.18,23.93 v -0.106 l -0.035,-0.176 0.035,-1.046 0.035,-0.071 0.105,-0.422 -0.246,0.563 -0.07,0.101 -0.07,0.282 -0.071,0.488 v 0.211 l 0.035,0.176 0.071,0.211 0.035,0.066 z"
         inkscape:connector-curvature="0" /><path
         id="path24"
         style="fill:#6c7d02;fill-rule:evenodd"
         d="m 21.859,22.496 0.036,-0.141 -0.036,-0.734 0.071,-0.351 0.136,-0.348 0.071,-0.106 0.035,-0.14 0.035,-0.035 0.035,-0.071 0.035,-0.105 0.035,-0.067 0.036,-0.105 v -0.07 h 0.035 v -0.071 l -0.035,0.071 -0.594,1.082 -0.141,0.699 v 0.246 l -0.035,0.141 v 0.14 h 0.035 v 0.106 l 0.035,0.035 h 0.036 z"
         inkscape:connector-curvature="0" /><path
         id="path26"
         style="fill:#6c7d02;fill-rule:evenodd"
         d="m 24.27,18.824 -0.313,0.524 -0.422,1.015 -0.172,0.699 v 0.278 l 0.035,-0.035 0.106,-0.071 0.066,-0.101 0.071,-0.141 0.035,-0.527 0.211,-0.766 z"
         inkscape:connector-curvature="0" /><path
         id="path28"
         style="fill:#6c7d02;fill-rule:evenodd"
         d="m 25.215,18.93 v 0.031 l 0.035,0.211 0.035,0.105 0.035,0.035 0.035,-0.07 0.176,-1.222 -0.07,-0.981 v 0.453 l -0.211,1.192 v 0.105 z"
         inkscape:connector-curvature="0" /><path
         id="path30"
         style="fill:#6c7d02;fill-rule:evenodd"
         d="m 26.266,16.551 0.07,0.347 0.07,0.071 0.106,-0.071 -0.141,-0.418 -0.035,-0.175 -0.141,-0.457 -0.246,-0.524 0.317,1.016 z"
         inkscape:connector-curvature="0" /><path
         id="path32"
         style="fill:#6c7d02;fill-rule:evenodd"
         d="m 20.703,24.035 -0.488,-0.105 -0.106,0.277 0.106,0.105 0.105,0.071 h 0.176 l 0.348,-0.141 0.281,-0.066 0.629,-0.246 -0.594,0.105 z"
         inkscape:connector-curvature="0" /><path
         id="path34"
         style="fill:#6c7d02;fill-rule:evenodd"
         d="m 22.766,22.637 -0.207,0.066 -0.176,-0.031 h -0.106 l -0.105,-0.035 -0.277,-0.282 -0.282,0.348 0.211,0.106 h 0.488 l 0.84,-0.243 z"
         inkscape:connector-curvature="0" /><path
         id="path36"
         style="fill:#6c7d02;fill-rule:evenodd"
         d="M 24.656,21.305 24.48,21.34 h -0.175 l -0.207,0.035 H 23.957 L 23.605,21.27 h -0.07 l -0.031,-0.036 -0.141,0.071 0.141,0.14 0.523,0.071 0.106,-0.036 0.105,-0.07 z"
         inkscape:connector-curvature="0" /><path
         id="path38"
         style="fill:#6c7d02;fill-rule:evenodd"
         d="m 25.879,19.277 0.351,-0.211 -0.421,0.176 -0.172,0.035 -0.106,-0.035 h -0.176 l -0.07,0.07 0.035,0.106 h 0.352 l 0.105,-0.035 z"
         inkscape:connector-curvature="0" /><g
         id="g40"><g
           id="g42"><g
             id="g48"><path
               id="path56"
               style="fill:url(#radialGradient50);fill-rule:evenodd"
               d="m 12.766,14.102 c 0.535,0.046 1.281,0.152 2.238,0.312 0.769,0.07 1.434,-0.035 1.992,-0.312 0.91,-0.422 1.574,-1.227 1.992,-2.414 0.559,-1.54 0.457,-3.301 -0.312,-5.282 C 17.973,4.633 17.184,3.445 16.297,2.84 15.852,2.535 15.035,2.289 13.848,2.105 12.355,1.848 11.145,1.812 10.211,2 8.484,2.301 7.203,3.234 6.363,4.797 5.223,6.965 4.801,8.898 5.105,10.602 c 0.325,1.586 1.235,2.73 2.727,3.429 1.027,0.465 1.934,0.606 2.73,0.418 1.118,-0.254 1.852,-0.371 2.204,-0.347 z"
               inkscape:connector-curvature="0" /></g></g></g><g
         id="g58"><g
           id="g74"
           mask="url(#mask66)"><g
             id="g114"><g
               id="g116"
               clip-path="url(#clipPath78)"><g
                 id="g118"><g
                   id="g122"><g
                     id="g124"
                     clip-path="url(#clipPath82)"><g
                       id="g126"><g
                         id="g128"><g
                           id="g130"
                           clip-path="url(#clipPath86)"><g
                             id="g132"
                             transform="matrix(0.69945,0.0083942,-0.094715,-0.7608,734.1,88.961)"><g
                               id="g136"
                               mask="url(#mask100)"><path
                                 id="path138"
                                 style="fill:url(#radialGradient108);fill-rule:evenodd"
                                 d="m 11.914,13.336 c 0.633,-0.793 0.91,-1.715 0.84,-2.762 C 12.684,9.523 12.277,8.637 11.531,7.914 10.809,7.191 9.957,6.852 8.977,6.898 8.023,6.945 7.23,7.355 6.598,8.125 5.969,8.918 5.691,9.84 5.762,10.887 c 0.09,1.051 0.5,1.937 1.222,2.66 0.723,0.723 1.575,1.058 2.555,1.012 0.953,-0.047 1.746,-0.454 2.375,-1.223 z"
                                 inkscape:connector-curvature="0" /></g></g></g></g></g></g></g></g></g></g></g></g><g
         id="g140"><g
           id="g156"
           mask="url(#mask148)"><g
             id="g196"><g
               id="g198"
               clip-path="url(#clipPath160)"><g
                 id="g200"><g
                   id="g204"><g
                     id="g206"
                     clip-path="url(#clipPath164)"><g
                       id="g208"><g
                         id="g210"><g
                           id="g212"
                           clip-path="url(#clipPath168)"><g
                             id="g214"
                             transform="matrix(0.69952,0,-0.084222,-0.7643,638.26,8.5994)"><g
                               id="g218"
                               mask="url(#mask182)"><path
                                 id="path220"
                                 style="fill:url(#radialGradient190);fill-rule:evenodd"
                                 d="M 13.059,11.48 C 13.34,11.152 13.465,10.758 13.441,10.293 13.418,9.848 13.246,9.465 12.918,9.137 12.59,8.832 12.23,8.695 11.836,8.719 c -0.422,0.023 -0.77,0.207 -1.051,0.558 -0.281,0.348 -0.41,0.758 -0.387,1.223 0.024,0.445 0.2,0.816 0.528,1.121 0.301,0.301 0.664,0.441 1.082,0.418 0.422,-0.023 0.769,-0.207 1.051,-0.559 z"
                                 inkscape:connector-curvature="0" /></g></g></g></g></g></g></g></g></g></g></g></g><path
         id="path222"
         style="fill:#ffffff;fill-rule:evenodd"
         d="M 8.324,11.406 C 8.836,11.387 9.207,11.234 9.441,10.953 9.676,10.719 9.723,10.477 9.582,10.219 9.441,10.008 9.164,9.902 8.742,9.902 8.344,9.926 7.996,10.031 7.691,10.219 7.414,10.406 7.355,10.652 7.52,10.953 c 0.183,0.305 0.453,0.453 0.804,0.453 z"
         inkscape:connector-curvature="0" /><path
         id="path224"
         style="fill:#ff9191;fill-rule:evenodd"
         d="m 11.68,13.051 0.422,0.07 c 0.3,0.024 0.558,0.024 0.769,0 0.324,-0.023 1,0.141 2.027,0.488 -0.421,-0.394 -0.921,-0.687 -1.503,-0.871 -0.512,-0.187 -0.911,-0.281 -1.192,-0.281 -0.371,-0.023 -0.758,0.07 -1.152,0.281 -0.258,0.137 -0.535,0.371 -0.84,0.7 l -0.383,0.488 0.524,-0.317 c 0.441,-0.23 0.886,-0.418 1.328,-0.558 z"
         inkscape:connector-curvature="0" /><path
         id="path226"
         style="fill:#800005;fill-rule:evenodd"
         d="m 10.492,13.508 c 0.395,-0.07 0.828,0 1.293,0.207 0.328,0.023 0.453,0.082 0.383,0.176 0.023,0.047 0.051,0.093 0.07,0.14 0.071,0.094 0.129,0.117 0.176,0.071 0.094,-0.047 0.375,-0.036 0.84,0.031 l -0.176,-0.242 c -0.094,-0.164 -0.058,-0.293 0.106,-0.387 0.304,-0.137 0.711,-0.149 1.222,-0.031 l -0.594,-0.246 c -0.628,-0.258 -1.152,-0.399 -1.574,-0.422 -0.324,-0.024 -0.711,0.082 -1.152,0.316 z"
         inkscape:connector-curvature="0" /><path
         id="path228"
         style="fill:#a2b002;fill-rule:evenodd"
         d="m 14.34,22.355 c -1.145,-2.402 -1.762,-4.617 -1.856,-6.644 -0.046,-1.238 0.071,-2.145 0.352,-2.731 -0.375,-0.207 -0.652,-0.218 -0.84,-0.035 -0.094,0.094 -0.152,0.258 -0.176,0.493 l -0.035,0.277 c -0.094,0.258 -0.14,0.687 -0.14,1.297 0.023,1.211 0.257,2.726 0.703,4.547 0.535,2.121 1.445,4.113 2.726,5.98 1.168,1.699 1.785,2.856 1.856,3.461 l 0.066,0.945 0.281,0.141 c 0.258,0.07 0.551,0.023 0.875,-0.141 0.465,-0.234 0.653,-0.433 0.559,-0.593 -0.441,-0.54 -0.781,-1.157 -1.012,-1.856 -0.117,-0.301 -0.574,-0.992 -1.367,-2.062 -0.91,-1.192 -1.574,-2.215 -1.992,-3.079 z"
         inkscape:connector-curvature="0" /><path
         id="path230"
         style="fill:#839602;fill-rule:evenodd"
         d="m 13.953,22.285 c 0.652,1.188 1.375,2.297 2.168,3.32 0.723,0.957 1.317,2.055 1.785,3.29 0.117,0.304 0.176,0.664 0.176,1.085 l 0.07,-0.035 c 0.465,-0.234 0.653,-0.433 0.559,-0.593 -0.445,-0.54 -0.781,-1.157 -1.016,-1.856 -0.117,-0.301 -0.57,-0.992 -1.363,-2.062 -0.91,-1.192 -1.574,-2.215 -1.992,-3.079 -1.145,-2.402 -1.762,-4.617 -1.856,-6.644 -0.046,-1.238 0.071,-2.145 0.352,-2.731 -0.375,-0.207 -0.652,-0.218 -0.84,-0.035 l -0.141,0.317 c 0.211,-0.071 0.34,-0.106 0.387,-0.106 0.184,-0.023 0.242,0.282 0.172,0.91 -0.113,1.192 -0.148,2.297 -0.102,3.325 0.067,1.375 0.618,3.007 1.641,4.894 z"
         inkscape:connector-curvature="0" /><path
         id="path232"
         style="fill:#c8db46;fill-rule:evenodd"
         d="m 17.172,29.316 c 0.023,0.254 0.058,0.407 0.105,0.454 0.047,0.023 0.094,-0.024 0.137,-0.141 0.07,-0.137 0,-0.535 -0.207,-1.188 -0.234,-0.769 -0.734,-1.656 -1.504,-2.66 -0.492,-0.652 -0.781,-1.011 -0.875,-1.082 -0.117,-0.094 -0.058,0.024 0.176,0.348 0.558,0.863 0.976,1.461 1.258,1.785 0.211,0.258 0.418,0.664 0.629,1.223 0.164,0.515 0.257,0.933 0.281,1.261 z"
         inkscape:connector-curvature="0" /></g></g><metadata
     id="metadata105"><rdf:RDF><cc:Work><dc:format>image/svg+xml</dc:format><dc:type
           rdf:resource="http://purl.org/dc/dcmitype/StillImage" /><cc:license
           rdf:resource="http://creativecommons.org/publicdomain/zero/1.0/" /><dc:publisher><cc:Agent
             rdf:about="http://openclipart.org/"><dc:title>Openclipart</dc:title></cc:Agent></dc:publisher><dc:title></dc:title></cc:Work><cc:License
         rdf:about="http://creativecommons.org/publicdomain/zero/1.0/"><cc:permits
           rdf:resource="http://creativecommons.org/ns#Reproduction" /><cc:permits
           rdf:resource="http://creativecommons.org/ns#Distribution" /><cc:permits
           rdf:resource="http://creativecommons.org/ns#DerivativeWorks" /></cc:License></rdf:RDF></metadata></svg>